<?xml version="1.0" encoding="UTF-8" standalone="no"?>
<!-- Generator: Adobe Illustrator 19.0.0, SVG Export Plug-In . SVG Version: 6.00 Build 0)  -->

<svg
   xmlns:dc="http://purl.org/dc/elements/1.1/"
   xmlns:cc="http://creativecommons.org/ns#"
   xmlns:rdf="http://www.w3.org/1999/02/22-rdf-syntax-ns#"
   xmlns:svg="http://www.w3.org/2000/svg"
   xmlns="http://www.w3.org/2000/svg"
   xmlns:sodipodi="http://sodipodi.sourceforge.net/DTD/sodipodi-0.dtd"
   xmlns:inkscape="http://www.inkscape.org/namespaces/inkscape"
   version="1.1"
   id="Capa_1"
   x="0px"
   y="0px"
   viewBox="0 0 512 512"
   style="enable-background:new 0 0 512 512;"
   xml:space="preserve"
   sodipodi:docname="user.svg"
   inkscape:version="0.92.3 (2405546, 2018-03-11)"><metadata
   id="metadata4831"><rdf:RDF><cc:Work
       rdf:about=""><dc:format>image/svg+xml</dc:format><dc:type
         rdf:resource="http://purl.org/dc/dcmitype/StillImage" /><dc:title></dc:title></cc:Work></rdf:RDF></metadata><defs
   id="defs4829" /><sodipodi:namedview
   pagecolor="#ffffff"
   bordercolor="#666666"
   borderopacity="1"
   objecttolerance="10"
   gridtolerance="10"
   guidetolerance="10"
   inkscape:pageopacity="0"
   inkscape:pageshadow="2"
   inkscape:window-width="1920"
   inkscape:window-height="1017"
   id="namedview4827"
   showgrid="false"
   inkscape:zoom="0.59731188"
   inkscape:cx="165.88883"
   inkscape:cy="15.657325"
   inkscape:window-x="-8"
   inkscape:window-y="-8"
   inkscape:window-maximized="1"
   inkscape:current-layer="Capa_1" />
<g
   id="g4794"
   transform="matrix(1.0248668,0,0,1.0248668,415.72062,-155.64047)"
   style="stroke-width:0.97573656">
	<g
   id="g4792"
   style="stroke-width:0.97573656">
		<path
   d="m -30.097019,446.19606 c -19.67739,-19.67668 -43.098586,-34.2433 -68.652445,-43.06118 27.368952,-18.85029 45.349808,-50.39777 45.349808,-86.07014 0,-57.5911 -46.854384,-104.44549 -104.445494,-104.44549 -57.5911,0 -104.44549,46.85439 -104.44549,104.44549 0,35.67237 17.98086,67.21985 45.35052,86.07014 -25.55386,8.81788 -48.97506,23.3845 -68.65245,43.06118 -34.12262,34.12333 -52.91505,79.49149 -52.91505,127.74813 h 28.22851 c 0,-84.05251 68.38145,-152.43396 152.43396,-152.43396 84.052512,0 152.4339642,68.38145 152.4339642,152.43396 H 22.817325 c 0,-48.25664 -18.7924253,-93.6248 -52.914344,-127.74813 z M -157.84515,393.28172 c -42.0259,0 -76.21698,-34.19037 -76.21698,-76.21698 0,-42.02661 34.19108,-76.21698 76.21698,-76.21698 42.0259,0 76.216983,34.19037 76.216983,76.21698 0,42.02661 -34.191083,76.21698 -76.216983,76.21698 z"
   id="path4790"
   inkscape:connector-curvature="0"
   style="stroke-width:0.97573656" />
	</g>
</g>
<g
   id="g4796">
</g>
<g
   id="g4798">
</g>
<g
   id="g4800">
</g>
<g
   id="g4802">
</g>
<g
   id="g4804">
</g>
<g
   id="g4806">
</g>
<g
   id="g4808">
</g>
<g
   id="g4810">
</g>
<g
   id="g4812">
</g>
<g
   id="g4814">
</g>
<g
   id="g4816">
</g>
<g
   id="g4818">
</g>
<g
   id="g4820">
</g>
<g
   id="g4822">
</g>
<g
   id="g4824">
</g>
<circle
   style="opacity:1;fill:none;fill-opacity:1;stroke:#000000;stroke-width:29.10236168;stroke-linecap:square;stroke-linejoin:round;stroke-miterlimit:4;stroke-dasharray:none;stroke-dashoffset:0;stroke-opacity:1;paint-order:markers fill stroke"
   id="path4833"
   cx="256.0498"
   cy="255.9502"
   r="241.49863" /></svg>