<svg xmlns="http://www.w3.org/2000/svg" xmlns:xlink="http://www.w3.org/1999/xlink" version="1.1" style="" width="260" height="157"><rect id="backgroundrect" width="100%" height="100%" x="0" y="0" fill="none" stroke="none" class="" style=""/>

<defs>
		<path d="M 0 0 H 850.400024 V 1133.900024 H 0 V 0 Z" id="SVGID_1_"/>
	</defs><clipPath id="SVGID_2_">
		<use style="overflow:visible;" xlink:href="#SVGID_1_" id="svg_1"/>
	</clipPath>
<g class="currentLayer" style=""><title>Layer 1</title><g id="svg_2" class=""><g stroke-width="0" id="svg_3">
                                    <path d="M98.93667539601353,57.26557103783316 H106.95326799902907 V100.17187959265674 H98.93667539601353 V57.26557103783316 z" class="b" style="fill: rgb(255, 255, 255);" stroke-width="0" id="svg_4"/>
                                    <path class="b" d="M139.51448677613834,100.07324538692858 H132.48759783113573 V79.75439581843744 c0,-4.24131325944233 -1.880435069789442,-6.509922677283576 -5.245424142044236,-6.805828253523739 c-2.0783756034514895,-0.1972703841601089 -5.443364675706282,0.29590557624016284 -7.917621346481863,0.8877167287204882 v26.23696109329441 h-7.026888945002654 V68.90452468963146 c0,0 8.511442947468003,-1.8740686495210297 16.23112376028782,-1.8740686495210297 c3.3649890722547915,0 6.037186276692421,1.1836223049606502 8.016591613312887,3.1563261465617343 c1.9794053366204667,1.9727038416010845 2.9691080049306993,4.734489219842601 2.9691080049306993,8.285356134724552 V100.07324538692858 z" style="fill: rgb(255, 255, 255);" stroke-width="0" id="svg_5"/>
                                    <path class="b" d="M169.99732896009357,71.96221564411319 c0,-5.129029988162819 -2.5732269376066057,-7.792180174324281 -7.6207105459887945,-7.792180174324281 h-8.907324014792096 v15.387089964488451 h8.808353747961073 c2.474256670775584,0 4.354691740565025,-0.6904463445603798 5.740275476199352,-1.9727038416010845 C169.3045370922764,76.20352890355548 169.99732896009357,74.32946025403443 169.99732896009357,71.96221564411319 M178.21186110706847,71.96221564411319 c0,4.339948451522385 -1.3855837356343261,7.890815366404336 -4.057780940071955,10.553965552565801 c-2.672197204437629,2.663150186161463 -6.433067344016514,3.945407683202168 -10.985699618243586,3.945407683202168 h-9.699086149440285 v13.710291699127533 h-7.917621346481863 V57.26557202418508 h17.121856161767028 c5.047483608382189,0 8.907324014792096,1.2822574970407046 11.579521219229724,3.945407683202168 C176.9252476382652,63.775494701468645 178.21186110706847,67.32636161635061 178.21186110706847,71.96221564411319 " style="fill: rgb(255, 255, 255);" stroke-width="0" id="svg_6"/>
                                    <path class="b" d="M203.35030888214848,83.8970738857997 c0,-3.2549613386417877 -0.7917621346481862,-5.7208411406431425 -2.276316137113535,-7.5949097901641744 c-1.4845540024653503,-1.8740686495210297 -3.4639593390858154,-2.8604205703215717 -5.9382160098613985,-2.8604205703215717 c-2.474256670775584,0 -4.45366200739605,0.9863519208005417 -5.9382160098613985,2.8604205703215717 c-1.4845540024653503,1.8740686495210297 -2.276316137113535,4.4385836436024375 -2.276316137113535,7.5949097901641744 c0,3.2549613386417877 0.7917621346481862,5.7208411406431425 2.276316137113535,7.5949097901641744 c1.4845540024653503,1.8740686495210297 3.4639593390858154,2.8604205703215717 5.9382160098613985,2.8604205703215717 c2.474256670775584,0 4.45366200739605,-0.9863519208005417 5.9382160098613985,-2.8604205703215717 C202.55854674750026,89.7165502185229 203.35030888214848,87.15203522444149 203.35030888214848,83.8970738857997 M210.67410862764413,83.8970738857997 c0,5.129029988162819 -1.4845540024653503,9.271708055525092 -4.354691740565025,12.428034202086828 c-2.870137738099676,3.1563261465617343 -6.63100787767856,4.734489219842601 -11.183640151905635,4.734489219842601 c-4.55263227422707,0 -8.313502413805958,-1.5781630732808671 -11.183640151905635,-4.734489219842601 c-2.870137738099676,-3.1563261465617343 -4.354691740565025,-7.29900421392401 -4.354691740565025,-12.428034202086828 c0,-5.129029988162819 1.4845540024653503,-9.271708055525092 4.354691740565025,-12.329399010006771 c2.870137738099676,-3.1563261465617343 6.63100787767856,-4.635854027762546 11.183640151905635,-4.635854027762546 c4.6516025410580975,0 8.41247268063698,1.5781630732808671 11.282610418736656,4.635854027762546 C209.28852489200975,74.62536583027463 210.67410862764413,78.7680438976369 210.67410862764413,83.8970738857997 " style="fill: rgb(255, 255, 255);" stroke-width="0" id="svg_7"/>
                                    <path class="b" d="M241.2559210784304,89.81518541060295 c0,3.2549613386417877 -1.2866134688033037,5.9181115248032485 -3.760870139578884,7.98945055848439 c-2.474256670775584,2.0713390336811384 -5.839245743030374,3.1563261465617343 -9.995996949933353,3.1563261465617343 c-6.433067344016514,0 -11.38158068556768,-1.8740686495210297 -14.944510291484523,-5.7208411406431425 l5.443364675706282,-4.537218835682492 c2.672197204437629,2.663150186161463 5.839245743030374,3.945407683202168 9.402175348947216,3.945407683202168 c1.9794053366204667,0 3.5629296059168394,-0.3945407683202177 4.75057280788912,-1.1836223049606502 c1.1876432019722798,-0.7890815366404339 1.7814648029584204,-1.7754334574409754 1.7814648029584204,-2.959055762401625 c0,-1.3808926891207598 -0.6927918678171643,-2.268609417841246 -1.9794053366204667,-2.7617853782415187 c-0.7917621346481862,-0.29590557624016284 -2.870137738099676,-0.6904463445603798 -6.235126810354467,-1.1836223049606502 c-4.057780940071955,-0.5918111524803258 -7.026888945002654,-1.4795278812008128 -8.70938348113005,-2.663150186161463 c-2.0783756034514895,-1.4795278812008128 -3.0680782717617228,-3.649502106962005 -3.0680782717617228,-6.509922677283576 c0,-2.959055762401625 1.1876432019722798,-5.326300372322926 3.6618998727478633,-7.29900421392401 c2.474256670775584,-1.9727038416010845 5.740275476199352,-2.959055762401625 9.897026683102332,-2.959055762401625 c4.948513341551166,0 9.204234815285167,1.6767982653609217 12.767164421202006,4.931759604002709 l-4.255721473734002,4.4385836436024375 c-2.5732269376066057,-2.268609417841246 -5.443364675706282,-3.3535965307218425 -8.70938348113005,-3.3535965307218425 c-4.156751206902979,0 -6.235126810354467,1.1836223049606502 -6.235126810354467,3.452231722801897 c0,1.3808926891207598 0.9897026683102329,2.268609417841246 2.870137738099676,2.7617853782415187 c2.672197204437629,0.3945407683202177 5.3443944088752575,0.8877167287204882 8.016591613312887,1.3808926891207598 C238.18784280666867,81.72709966003852 241.2559210784304,84.7847906145202 241.2559210784304,89.81518541060295 " style="fill: rgb(255, 255, 255);" stroke-width="0" id="svg_8"/>
                                    <path class="b" d="M258.0808664397044,100.07324538692858 c-1.1876432019722798,0.29590557624016284 -2.3752864039445596,0.4931759604002714 -3.6618998727478633,0.4931759604002714 c-4.057780940071955,0 -6.63100787767856,-0.8877167287204882 -7.917621346481863,-2.663150186161463 c-0.9897026683102329,-1.3808926891207598 -1.5835242692963734,-4.044042875282221 -1.5835242692963734,-7.98945055848439 V58.54782952122578 h7.026888945002654 v9.271708055525092 h6.235126810354467 v5.7208411406431425 h-6.235126810354467 v15.978901116968778 c0,1.8740686495210297 0.19794053366204686,3.05769095448168 0.6927918678171643,3.649502106962005 c0.5938216009861406,0.7890815366404339 1.7814648029584204,1.1836223049606502 3.5629296059168394,1.1836223049606502 c0.49485133415511634,0 1.0886729351412563,0 1.7814648029584204,-0.09863519208005452 V100.07324538692858 z" style="fill: rgb(255, 255, 255);" stroke-width="0" id="svg_9"/>
                                    <path class="y" d="M38.06996327433951,78.66940870555683 c0,0 -8.313502413805958,3.2549613386417877 -18.606410164232383,3.2549613386417877 C9.170645359680718,81.82573485211859 0.8571429458747527,78.66940870555683 0.8571429458747527,78.66940870555683 s8.313502413805958,-3.2549613386417877 18.606410164232383,-3.2549613386417877 C29.756460860533547,75.41444736691503 38.06996327433951,78.66940870555683 38.06996327433951,78.66940870555683 " style="fill: rgb(255, 204, 0);" stroke-width="0" id="svg_10"/>
                                    <path class="y" d="M63.80223265040558,31.423151699210877 c0,0 -7.422770012326746,-4.931759604002709 -13.163045488526102,-13.315750930807313 C44.997881952511136,9.822044633679017 43.018476615890684,1.2407829227143061 43.018476615890684,1.2407829227143061 s7.422770012326746,4.931759604002709 13.163045488526102,13.315750930807313 C61.921797580616115,22.84188998824617 63.80223265040558,31.423151699210877 63.80223265040558,31.423151699210877 " style="fill: rgb(255, 204, 0);" stroke-width="0" id="svg_11"/>
                                    <path class="y" d="M44.997881952511136,51.74200126770205 c0,0 -8.907324014792096,-0.9863519208005417 -18.01258856324624,-5.7208411406431425 c-9.10526454845414,-4.734489219842601 -14.845540024653491,-11.34304708920623 -14.845540024653491,-11.34304708920623 s8.907324014792096,0.9863519208005417 18.01258856324624,5.7208411406431425 C39.15863620948078,45.13344339833843 44.997881952511136,51.74200126770205 44.997881952511136,51.74200126770205 " style="fill: rgb(255, 204, 0);" stroke-width="0" id="svg_12"/>
                                    <path class="y" d="M62.51561918160226,92.97151155716469 c5.3443944088752575,-1.6767982653609217 9.995996949933353,-4.044042875282221 9.995996949933353,-4.044042875282221 s-12.668194154370982,-3.5508669148819507 -11.77746175289177,-16.76798265360921 c2.870137738099676,-21.699742257611927 20.486845234021825,-38.664995295381246 42.55721473734002,-41.42678067362275 c-2.3752864039445596,-0.29590557624016284 -4.75057280788912,-0.4931759604002714 -7.125859211833679,-0.4931759604002714 c-27.31579364536243,0.09863519208005452 -49.287192881849606,21.798377449691984 -49.18822261501859,48.42987931130661 c0.09897026683102356,26.631501861614627 22.36728030381127,48.13397373506644 49.58410368234267,48.035338542986395 c2.276316137113535,0 4.55263227422707,-0.1972703841601089 6.729978144509584,-0.4931759604002714 C83.9921670839343,123.9429618703017 68.25589465780163,110.52857574741434 62.51561918160226,92.97151155716469 z" style="fill: rgb(255, 204, 0);" stroke-width="0" id="svg_13"/>
                                    <path class="y" d="M63.80223265040558,125.6197601356626 c0,0 -7.422770012326746,4.931759604002709 -13.163045488526102,13.315750930807313 c-5.740275476199352,8.285356134724552 -7.719680812819815,16.866617845689266 -7.719680812819815,16.866617845689266 s7.422770012326746,-4.931759604002709 13.163045488526102,-13.315750930807313 C61.921797580616115,134.20102184662736 63.80223265040558,125.6197601356626 63.80223265040558,125.6197601356626 " style="fill: rgb(255, 204, 0);" stroke-width="0" id="svg_14"/>
                                    <path class="y" d="M44.997881952511136,105.30091056717147 c0,0 -8.907324014792096,0.9863519208005417 -18.01258856324624,5.7208411406431425 c-9.10526454845414,4.734489219842601 -14.845540024653491,11.34304708920623 -14.845540024653491,11.34304708920623 s8.907324014792096,-0.9863519208005417 18.01258856324624,-5.7208411406431425 C39.15863620948078,111.90946843653508 44.997881952511136,105.30091056717147 44.997881952511136,105.30091056717147 " style="fill: rgb(255, 204, 0);" stroke-width="0" id="svg_15"/>
                                <path d="M151.15213214366358,82.53352985258307 " style="fill: rgb(255, 255, 255); fill-opacity: 1; stroke: rgb(0, 0, 0); stroke-opacity: 1; stroke-width: 0; paint-order: fill;" stroke-width="0" id="svg_16"/><path d="M115.60229111785321,71.15505991890933 L115.60229111785321,71.15505991890933 C115.60229111785321,71.15505991890933 124.04963354124422,71.15505991890933 124.47199688699766,71.15505991890933 " style="fill: rgb(255, 255, 255); fill-opacity: 1; stroke: rgb(0, 0, 0); stroke-opacity: 1; stroke-width: 0; paint-order: fill;" stroke-width="0" id="svg_17"/><path d="M220.34929186290896,71.57599330698537 L220.34929186290896,71.57599330698537 L227.1071658016218,72.83880852174929 " style="fill: rgb(255, 255, 255); fill-opacity: 1; stroke: rgb(0, 0, 0); stroke-opacity: 1; stroke-width: 0; paint-order: fill;" stroke-width="0" id="svg_18"/><path d="M232.93743347670562,60.57271361015961 " style="fill: rgb(255, 255, 255); fill-opacity: 1; stroke: rgb(0, 0, 0); stroke-opacity: 1; stroke-width: 0; paint-order: fill;" stroke-width="0" id="svg_19"/></g></g></g><g style=""><title>Layer 2</title><rect id="ee-background" x="0" y="0" width="850.4000244140625" height="1133.9000244140625" style="fill: white; fill-opacity: 0;"/></g></svg>