<svg id="svg" version="1.1" xmlns="http://www.w3.org/2000/svg" xmlns:xlink="http://www.w3.org/1999/xlink" width="400" height="133.33333333333334" viewBox="0, 0, 400,133.33333333333334"><g id="svgg"><path id="path0" d="M47.554 40.116 C 46.859 40.251,46.760 40.565,46.974 41.967 C 47.287 44.027,46.889 47.453,45.929 50.962 C 45.225 53.534,44.476 56.695,44.063 58.833 C 43.842 59.979,43.518 61.367,43.344 61.917 C 43.169 62.467,42.867 63.681,42.674 64.615 C 42.480 65.549,42.173 66.747,41.991 67.277 C 41.809 67.806,41.474 69.263,41.248 70.513 C 41.021 71.764,40.729 73.042,40.599 73.354 C 40.469 73.666,40.207 74.737,40.018 75.736 C 39.675 77.547,39.101 78.951,38.231 80.114 C 37.947 80.493,37.833 80.863,37.833 81.408 L 37.833 82.171 43.357 82.127 L 48.881 82.083 49.191 81.667 C 49.700 80.982,50.320 79.051,50.673 77.046 C 50.856 76.010,51.113 74.845,51.244 74.456 C 51.530 73.608,51.776 72.530,52.082 70.780 C 52.520 68.276,52.745 68.167,57.466 68.167 C 63.410 68.167,67.005 67.524,70.591 65.820 C 71.347 65.461,72.023 65.167,72.093 65.167 C 72.162 65.167,72.451 64.990,72.734 64.774 C 73.018 64.558,73.550 64.227,73.917 64.039 C 74.534 63.722,76.649 61.697,77.787 60.333 C 80.605 56.958,81.322 49.236,79.152 45.643 C 78.134 43.958,75.353 41.732,73.750 41.320 C 73.383 41.226,72.446 40.967,71.667 40.745 C 70.887 40.522,69.575 40.264,68.750 40.171 C 67.326 40.011,48.347 39.962,47.554 40.116 M200.043 41.612 C 199.558 41.950,198.909 43.990,198.577 46.224 C 198.105 49.401,197.462 50.247,195.424 50.374 C 193.763 50.478,193.428 50.679,193.157 51.735 C 193.061 52.110,192.793 53.075,192.561 53.880 C 191.920 56.103,192.105 56.795,193.437 57.151 C 195.862 57.799,195.752 59.833,192.651 71.734 C 190.598 79.610,194.008 82.949,203.750 82.600 C 209.181 82.405,210.399 81.894,210.743 79.667 C 210.806 79.254,211.008 78.345,211.191 77.647 C 211.800 75.328,211.382 74.737,209.599 75.392 C 207.471 76.173,204.916 75.928,203.769 74.834 L 202.945 74.048 202.959 72.566 C 202.969 71.419,203.084 70.725,203.466 69.500 C 203.737 68.629,204.052 67.357,204.167 66.674 C 204.281 65.990,204.518 65.016,204.692 64.509 C 204.867 64.002,205.161 62.724,205.345 61.668 C 206.149 57.079,205.899 57.273,211.154 57.167 C 215.846 57.072,215.686 57.120,216.101 55.690 C 216.251 55.173,216.552 54.164,216.770 53.448 C 217.670 50.494,217.600 50.442,212.657 50.333 C 210.088 50.277,208.787 50.187,208.656 50.056 C 208.280 49.680,208.277 48.422,208.648 47.305 C 209.499 44.748,209.730 42.013,209.130 41.593 C 208.578 41.207,200.600 41.223,200.043 41.612 M319.994 42.816 C 319.015 43.015,319.464 42.606,310.654 51.333 C 306.629 55.321,301.983 59.913,300.331 61.538 C 296.355 65.450,296.206 65.978,298.327 68.625 C 299.576 70.184,299.444 70.273,307.098 62.750 C 307.844 62.017,308.633 61.264,308.852 61.078 C 309.071 60.891,309.709 60.254,310.270 59.661 C 311.621 58.233,314.785 55.159,316.154 53.945 C 316.757 53.410,317.325 52.842,317.417 52.682 C 317.558 52.435,318.482 51.570,319.766 50.481 C 319.941 50.333,320.459 49.805,320.919 49.307 C 321.378 48.809,321.866 48.330,322.002 48.243 C 322.152 48.146,327.755 48.050,336.167 48.000 L 350.083 47.917 351.272 47.391 C 351.925 47.102,352.900 46.776,353.438 46.666 C 353.976 46.556,354.904 46.255,355.500 45.997 C 356.096 45.739,357.221 45.437,358.000 45.326 C 358.779 45.215,359.882 44.951,360.450 44.739 C 361.019 44.527,362.706 44.155,364.200 43.911 C 367.651 43.349,367.700 43.325,366.000 43.035 C 364.459 42.772,321.220 42.566,319.994 42.816 M65.240 48.967 C 67.794 49.887,68.235 50.419,68.230 52.574 C 68.223 55.505,66.655 57.044,62.417 58.278 C 61.285 58.607,55.914 58.677,55.375 58.369 C 54.861 58.075,54.875 57.019,55.412 55.480 C 55.639 54.831,55.907 53.839,56.008 53.275 C 56.216 52.117,57.386 49.075,57.802 48.612 C 58.317 48.038,63.326 48.277,65.240 48.967 M96.821 49.497 C 94.055 49.853,89.473 51.554,87.872 52.819 C 84.874 55.187,81.500 58.948,81.500 59.920 C 81.500 59.989,81.206 60.654,80.847 61.398 C 78.884 65.460,78.602 71.769,80.198 75.917 C 80.986 77.965,83.598 80.378,86.417 81.662 C 90.616 83.574,100.814 83.043,103.917 80.750 C 104.192 80.547,104.792 80.182,105.250 79.939 C 107.890 78.538,110.753 75.626,112.097 72.973 C 112.340 72.493,112.677 71.908,112.844 71.675 C 113.012 71.441,113.265 70.792,113.406 70.233 C 113.547 69.674,113.853 68.710,114.086 68.092 C 114.681 66.512,114.974 62.659,114.710 59.890 C 114.001 52.445,106.728 48.220,96.821 49.497 M138.000 49.520 C 137.313 49.598,136.262 49.807,135.667 49.983 C 135.071 50.158,134.056 50.419,133.412 50.562 C 130.104 51.293,126.092 53.898,123.468 57.019 C 117.253 64.410,117.475 75.809,123.917 79.968 C 124.283 80.205,124.742 80.538,124.937 80.708 C 125.357 81.076,127.452 81.912,129.083 82.362 C 133.151 83.485,143.087 82.484,144.989 80.759 C 145.736 80.082,146.355 78.677,146.656 76.976 C 146.824 76.025,147.087 74.948,147.239 74.584 C 147.651 73.597,147.808 72.747,147.636 72.439 C 147.367 71.958,145.954 72.074,145.297 72.630 C 140.183 76.963,132.619 76.647,130.227 72.000 L 129.583 70.750 129.583 68.417 L 129.583 66.083 130.309 64.167 C 132.438 58.539,136.169 56.231,141.922 56.984 C 144.549 57.327,146.281 58.129,147.994 59.793 C 149.207 60.971,150.156 60.419,150.753 58.189 C 150.980 57.341,151.241 56.506,151.333 56.334 C 151.556 55.917,151.998 53.789,152.029 52.976 C 152.049 52.465,151.951 52.216,151.569 51.815 C 150.033 50.201,142.774 48.973,138.000 49.520 M235.027 49.513 C 234.446 49.588,233.621 49.761,233.194 49.897 C 232.766 50.033,231.818 50.304,231.086 50.499 C 228.100 51.295,224.483 53.652,222.504 56.092 C 221.980 56.738,221.414 57.488,221.245 57.758 C 221.077 58.029,220.777 58.438,220.580 58.667 C 220.382 58.896,220.123 59.346,220.004 59.667 C 219.886 59.987,219.578 60.700,219.321 61.250 C 219.064 61.800,218.733 62.887,218.586 63.667 C 218.438 64.446,218.171 65.686,217.992 66.422 C 217.645 67.851,217.565 70.164,217.828 71.167 C 217.912 71.487,218.169 72.477,218.399 73.367 C 219.509 77.660,222.537 80.424,228.133 82.255 C 230.904 83.161,240.028 82.958,243.417 81.914 C 244.150 81.688,245.189 81.386,245.725 81.242 C 247.168 80.856,247.949 80.062,248.350 78.575 C 248.522 77.938,248.847 76.742,249.073 75.917 C 249.881 72.960,249.459 71.626,248.000 72.529 C 246.653 73.363,244.164 74.467,243.000 74.746 C 242.313 74.911,241.525 75.166,241.250 75.313 C 240.854 75.523,240.072 75.591,237.499 75.637 L 234.248 75.696 232.953 75.181 C 232.241 74.898,231.560 74.667,231.440 74.667 C 230.330 74.667,228.159 71.676,228.037 69.981 C 227.895 67.989,226.803 68.167,239.202 68.167 C 252.713 68.167,251.533 68.445,252.269 65.083 C 254.705 53.955,247.933 47.838,235.027 49.513 M160.250 50.415 C 160.158 50.446,159.879 50.516,159.630 50.571 C 159.044 50.700,158.846 51.092,158.494 52.828 C 158.335 53.610,158.071 54.765,157.907 55.394 C 157.373 57.445,157.458 57.469,165.386 57.487 C 170.990 57.499,172.000 57.572,172.000 57.965 C 172.000 58.265,170.430 59.937,168.833 61.337 C 167.871 62.182,166.821 63.123,166.500 63.430 C 166.179 63.736,165.242 64.561,164.417 65.263 C 163.592 65.965,162.729 66.742,162.500 66.989 C 162.271 67.236,161.633 67.784,161.083 68.207 C 160.533 68.630,159.558 69.478,158.917 70.092 C 158.275 70.705,157.412 71.479,157.000 71.812 C 156.587 72.145,156.227 72.467,156.199 72.528 C 156.171 72.589,155.486 73.211,154.676 73.908 C 152.601 75.698,152.365 76.091,151.894 78.543 C 151.403 81.099,151.393 80.927,152.071 81.605 L 152.642 82.176 166.780 82.130 C 183.636 82.074,182.423 82.268,182.744 79.583 C 182.809 79.033,183.010 78.143,183.190 77.606 C 184.154 74.722,184.088 74.696,175.733 74.679 C 169.380 74.667,168.333 74.581,168.333 74.077 C 168.333 73.693,171.034 71.148,175.167 67.638 C 175.671 67.210,176.608 66.359,177.250 65.746 C 177.892 65.134,178.679 64.436,179.000 64.194 C 179.321 63.952,180.071 63.286,180.667 62.713 C 181.262 62.140,181.938 61.544,182.167 61.389 C 182.396 61.234,183.071 60.643,183.667 60.075 C 184.262 59.507,185.392 58.478,186.176 57.787 C 187.748 56.404,187.658 56.581,188.469 53.281 C 189.015 51.061,188.976 50.887,187.850 50.519 C 187.335 50.350,160.744 50.251,160.250 50.415 M261.212 50.514 C 260.159 50.828,260.440 52.051,262.185 54.750 C 262.422 55.117,262.917 55.942,263.285 56.583 C 263.653 57.225,264.113 58.012,264.306 58.333 C 264.500 58.654,264.924 59.436,265.247 60.071 C 265.571 60.706,265.939 61.344,266.065 61.488 C 266.191 61.632,266.460 62.078,266.661 62.479 C 266.863 62.880,267.236 63.495,267.490 63.846 C 268.471 65.200,268.263 66.478,266.869 67.674 C 266.528 67.965,264.746 69.677,262.908 71.477 C 261.070 73.277,258.194 76.078,256.515 77.701 L 253.463 80.652 253.613 81.283 C 253.813 82.131,253.927 82.145,260.391 82.157 C 267.431 82.170,266.815 82.366,269.594 79.223 C 270.780 77.882,271.914 76.552,272.114 76.267 C 272.723 75.403,275.134 73.128,275.360 73.203 C 275.821 73.357,277.079 75.401,279.032 79.167 C 280.240 81.495,280.443 81.724,281.515 81.972 C 282.419 82.181,289.370 82.247,290.735 82.060 C 291.948 81.893,292.352 80.909,291.607 79.932 C 291.390 79.649,290.974 78.967,290.681 78.417 C 290.388 77.867,289.955 77.079,289.720 76.667 C 288.377 74.316,287.897 73.500,287.418 72.750 C 287.125 72.292,286.721 71.579,286.520 71.167 C 286.319 70.754,285.823 69.854,285.417 69.167 C 284.389 67.424,284.167 66.920,284.167 66.333 C 284.167 65.799,285.000 64.944,295.645 54.542 C 300.091 50.198,300.222 50.336,291.655 50.334 C 284.867 50.333,284.817 50.343,283.583 51.851 C 283.125 52.412,282.259 53.443,281.659 54.143 C 281.059 54.844,280.348 55.717,280.079 56.083 C 277.439 59.677,276.882 59.720,275.181 56.467 C 272.888 52.086,272.483 51.379,271.988 50.905 L 271.479 50.417 266.614 50.385 C 263.887 50.368,261.514 50.424,261.212 50.514 M322.690 50.679 C 322.176 50.780,321.737 51.036,321.190 51.554 C 320.150 52.539,317.791 54.798,317.583 55.008 C 317.492 55.101,316.938 55.644,316.353 56.214 C 315.768 56.784,313.799 58.712,311.977 60.500 C 310.156 62.288,307.709 64.671,306.541 65.796 C 305.373 66.922,303.656 68.578,302.726 69.477 C 301.796 70.376,300.871 71.432,300.672 71.823 L 300.309 72.535 301.007 73.971 C 301.391 74.761,301.872 75.634,302.075 75.912 C 302.278 76.189,302.910 77.367,303.478 78.528 C 305.132 81.904,305.857 82.249,310.664 81.945 C 316.482 81.578,319.160 79.956,324.474 73.583 C 324.856 73.125,325.500 72.375,325.906 71.917 C 326.312 71.458,327.793 69.734,329.197 68.085 C 330.601 66.435,332.321 64.485,333.018 63.751 C 333.715 63.017,334.757 61.892,335.332 61.250 C 336.693 59.732,338.792 57.945,339.833 57.418 C 340.154 57.256,340.764 56.871,341.189 56.562 C 341.614 56.253,342.020 56.000,342.091 56.000 C 342.162 56.000,342.565 55.783,342.985 55.518 C 343.406 55.253,344.350 54.832,345.083 54.583 C 345.817 54.334,346.608 54.031,346.843 53.911 C 347.077 53.790,348.127 53.533,349.176 53.338 C 350.225 53.144,351.646 52.801,352.333 52.577 C 353.293 52.263,357.686 51.500,358.532 51.500 C 359.022 51.500,358.515 51.162,357.792 51.006 C 355.657 50.545,324.830 50.259,322.690 50.679 M240.234 56.746 C 242.241 58.129,242.635 60.738,240.967 61.600 C 239.463 62.378,230.240 61.820,229.899 60.931 C 229.724 60.475,232.212 57.333,232.748 57.333 C 232.844 57.333,233.221 57.130,233.586 56.881 C 235.263 55.739,238.671 55.670,240.234 56.746 M101.364 56.908 C 102.243 57.316,102.982 57.976,103.577 58.884 C 104.210 59.850,104.228 65.925,103.603 67.833 C 101.370 74.654,96.310 77.720,91.921 74.912 C 89.339 73.260,89.127 66.370,91.516 61.750 C 92.457 59.931,94.380 57.500,94.879 57.500 C 94.908 57.500,95.566 57.234,96.341 56.908 C 98.110 56.166,99.765 56.166,101.364 56.908 " stroke="none" fill="#f9f2f2" fill-rule="evenodd"></path><path id="path1" d="M0.000 66.667 L 0.000 133.333 200.000 133.333 L 400.000 133.333 400.000 66.667 L 400.000 0.000 200.000 0.000 L 0.000 0.000 0.000 66.667 M68.750 40.171 C 69.575 40.264,70.887 40.522,71.667 40.745 C 72.446 40.967,73.383 41.226,73.750 41.320 C 75.353 41.732,78.134 43.958,79.152 45.643 C 81.322 49.236,80.605 56.958,77.787 60.333 C 76.649 61.697,74.534 63.722,73.917 64.039 C 73.550 64.227,73.018 64.558,72.734 64.774 C 72.451 64.990,72.162 65.167,72.093 65.167 C 72.023 65.167,71.347 65.461,70.591 65.820 C 67.005 67.524,63.410 68.167,57.466 68.167 C 52.745 68.167,52.520 68.276,52.082 70.780 C 51.776 72.530,51.530 73.608,51.244 74.456 C 51.113 74.845,50.856 76.010,50.673 77.046 C 50.320 79.051,49.700 80.982,49.191 81.667 L 48.881 82.083 43.357 82.127 L 37.833 82.171 37.833 81.408 C 37.833 80.863,37.947 80.493,38.231 80.114 C 39.101 78.951,39.675 77.547,40.018 75.736 C 40.207 74.737,40.469 73.666,40.599 73.354 C 40.729 73.042,41.021 71.764,41.248 70.513 C 41.474 69.263,41.809 67.806,41.991 67.277 C 42.173 66.747,42.480 65.549,42.674 64.615 C 42.867 63.681,43.169 62.467,43.344 61.917 C 43.518 61.367,43.842 59.979,44.063 58.833 C 44.476 56.695,45.225 53.534,45.929 50.962 C 46.889 47.453,47.287 44.027,46.974 41.967 C 46.760 40.565,46.859 40.251,47.554 40.116 C 48.347 39.962,67.326 40.011,68.750 40.171 M209.130 41.593 C 209.730 42.013,209.499 44.748,208.648 47.305 C 208.277 48.422,208.280 49.680,208.656 50.056 C 208.787 50.187,210.088 50.277,212.657 50.333 C 217.600 50.442,217.670 50.494,216.770 53.448 C 216.552 54.164,216.251 55.173,216.101 55.690 C 215.686 57.120,215.846 57.072,211.154 57.167 C 205.899 57.273,206.149 57.079,205.345 61.668 C 205.161 62.724,204.867 64.002,204.692 64.509 C 204.518 65.016,204.281 65.990,204.167 66.674 C 204.052 67.357,203.737 68.629,203.466 69.500 C 203.084 70.725,202.969 71.419,202.959 72.566 L 202.945 74.048 203.769 74.834 C 204.916 75.928,207.471 76.173,209.599 75.392 C 211.382 74.737,211.800 75.328,211.191 77.647 C 211.008 78.345,210.806 79.254,210.743 79.667 C 210.399 81.894,209.181 82.405,203.750 82.600 C 194.008 82.949,190.598 79.610,192.651 71.734 C 195.752 59.833,195.862 57.799,193.437 57.151 C 192.105 56.795,191.920 56.103,192.561 53.880 C 192.793 53.075,193.061 52.110,193.157 51.735 C 193.428 50.679,193.763 50.478,195.424 50.374 C 197.462 50.247,198.105 49.401,198.577 46.224 C 198.909 43.990,199.558 41.950,200.043 41.612 C 200.600 41.223,208.578 41.207,209.130 41.593 M366.000 43.035 C 367.700 43.325,367.651 43.349,364.200 43.911 C 362.706 44.155,361.019 44.527,360.450 44.739 C 359.882 44.951,358.779 45.215,358.000 45.326 C 357.221 45.437,356.096 45.739,355.500 45.997 C 354.904 46.255,353.976 46.556,353.438 46.666 C 352.900 46.776,351.925 47.102,351.272 47.391 L 350.083 47.917 336.167 48.000 C 327.755 48.050,322.152 48.146,322.002 48.243 C 321.866 48.330,321.378 48.809,320.919 49.307 C 320.459 49.805,319.941 50.333,319.766 50.481 C 318.482 51.570,317.558 52.435,317.417 52.682 C 317.325 52.842,316.757 53.410,316.154 53.945 C 314.785 55.159,311.621 58.233,310.270 59.661 C 309.709 60.254,309.071 60.891,308.852 61.078 C 308.633 61.264,307.844 62.017,307.098 62.750 C 299.444 70.273,299.576 70.184,298.327 68.625 C 296.206 65.978,296.355 65.450,300.331 61.538 C 301.983 59.913,306.629 55.321,310.654 51.333 C 319.464 42.606,319.015 43.015,319.994 42.816 C 321.220 42.566,364.459 42.772,366.000 43.035 M57.802 48.612 C 57.386 49.075,56.216 52.117,56.008 53.275 C 55.907 53.839,55.639 54.831,55.412 55.480 C 54.409 58.352,54.666 58.595,58.667 58.552 C 61.770 58.518,62.193 58.445,64.572 57.523 C 68.149 56.138,69.676 51.433,67.097 49.743 C 65.269 48.546,58.591 47.733,57.802 48.612 M103.566 49.506 C 110.019 50.439,114.179 54.315,114.710 59.890 C 114.974 62.659,114.681 66.512,114.086 68.092 C 113.853 68.710,113.547 69.674,113.406 70.233 C 113.265 70.792,113.012 71.441,112.844 71.675 C 112.677 71.908,112.340 72.493,112.097 72.973 C 110.753 75.626,107.890 78.538,105.250 79.939 C 104.792 80.182,104.192 80.547,103.917 80.750 C 100.814 83.043,90.616 83.574,86.417 81.662 C 84.076 80.596,82.313 79.167,80.973 77.250 C 78.602 73.860,78.541 66.169,80.847 61.398 C 81.206 60.654,81.500 59.989,81.500 59.920 C 81.500 58.948,84.874 55.187,87.872 52.819 C 91.065 50.297,98.368 48.755,103.566 49.506 M143.667 49.497 C 145.149 49.643,150.159 50.803,150.796 51.149 C 151.537 51.551,152.055 52.318,152.029 52.976 C 151.998 53.789,151.556 55.917,151.333 56.334 C 151.241 56.506,150.980 57.341,150.753 58.189 C 150.156 60.419,149.207 60.971,147.994 59.793 C 145.172 57.052,140.565 56.126,136.200 57.422 C 133.883 58.110,131.620 60.701,130.309 64.167 L 129.583 66.083 129.583 68.417 L 129.583 70.750 130.227 72.000 C 132.619 76.647,140.183 76.963,145.297 72.630 C 145.954 72.074,147.367 71.958,147.636 72.439 C 147.808 72.747,147.651 73.597,147.239 74.584 C 147.087 74.948,146.824 76.025,146.656 76.976 C 146.355 78.677,145.736 80.082,144.989 80.759 C 143.087 82.484,133.151 83.485,129.083 82.362 C 127.452 81.912,125.357 81.076,124.937 80.708 C 124.742 80.538,124.283 80.205,123.917 79.968 C 118.716 76.611,117.392 68.076,120.947 60.833 C 121.873 58.946,122.842 57.607,124.750 55.579 C 126.646 53.563,130.850 51.128,133.412 50.562 C 134.056 50.419,135.071 50.158,135.667 49.983 C 137.665 49.393,140.715 49.208,143.667 49.497 M242.131 49.501 C 250.598 50.601,254.221 56.169,252.269 65.083 C 251.533 68.445,252.713 68.167,239.202 68.167 C 226.803 68.167,227.895 67.989,228.037 69.981 C 228.159 71.676,230.330 74.667,231.440 74.667 C 231.560 74.667,232.241 74.898,232.953 75.181 L 234.248 75.696 237.499 75.637 C 240.072 75.591,240.854 75.523,241.250 75.313 C 241.525 75.166,242.313 74.911,243.000 74.746 C 244.164 74.467,246.653 73.363,248.000 72.529 C 249.459 71.626,249.881 72.960,249.073 75.917 C 248.847 76.742,248.522 77.938,248.350 78.575 C 247.949 80.062,247.168 80.856,245.725 81.242 C 245.189 81.386,244.150 81.688,243.417 81.914 C 240.028 82.958,230.904 83.161,228.133 82.255 C 222.537 80.424,219.509 77.660,218.399 73.367 C 218.169 72.477,217.912 71.487,217.828 71.167 C 217.565 70.164,217.645 67.851,217.992 66.422 C 218.171 65.686,218.438 64.446,218.586 63.667 C 218.733 62.887,219.064 61.800,219.321 61.250 C 219.578 60.700,219.886 59.987,220.004 59.667 C 220.123 59.346,220.382 58.896,220.580 58.667 C 220.777 58.438,221.077 58.029,221.245 57.758 C 222.706 55.412,225.464 53.002,228.331 51.567 C 229.114 51.175,230.354 50.694,231.086 50.499 C 231.818 50.304,232.766 50.033,233.194 49.897 C 234.834 49.375,239.549 49.166,242.131 49.501 M187.850 50.519 C 188.976 50.887,189.015 51.061,188.469 53.281 C 187.658 56.581,187.748 56.404,186.176 57.787 C 185.392 58.478,184.262 59.507,183.667 60.075 C 183.071 60.643,182.396 61.234,182.167 61.389 C 181.938 61.544,181.262 62.140,180.667 62.713 C 180.071 63.286,179.321 63.952,179.000 64.194 C 178.679 64.436,177.892 65.134,177.250 65.746 C 176.608 66.359,175.671 67.210,175.167 67.638 C 171.034 71.148,168.333 73.693,168.333 74.077 C 168.333 74.581,169.380 74.667,175.733 74.679 C 184.088 74.696,184.154 74.722,183.190 77.606 C 183.010 78.143,182.809 79.033,182.744 79.583 C 182.423 82.268,183.636 82.074,166.780 82.130 L 152.642 82.176 152.071 81.605 C 151.393 80.927,151.403 81.099,151.894 78.543 C 152.365 76.091,152.601 75.698,154.676 73.908 C 155.486 73.211,156.171 72.589,156.199 72.528 C 156.227 72.467,156.587 72.145,157.000 71.812 C 157.412 71.479,158.275 70.705,158.917 70.092 C 159.558 69.478,160.533 68.630,161.083 68.207 C 161.633 67.784,162.271 67.236,162.500 66.989 C 162.729 66.742,163.592 65.965,164.417 65.263 C 165.242 64.561,166.179 63.736,166.500 63.430 C 166.821 63.123,167.871 62.182,168.833 61.337 C 170.430 59.937,172.000 58.265,172.000 57.965 C 172.000 57.572,170.990 57.499,165.386 57.487 C 157.458 57.469,157.373 57.445,157.907 55.394 C 158.071 54.765,158.335 53.610,158.494 52.828 C 158.846 51.092,159.044 50.700,159.630 50.571 C 159.879 50.516,160.158 50.446,160.250 50.415 C 160.744 50.251,187.335 50.350,187.850 50.519 M271.988 50.905 C 272.483 51.379,272.888 52.086,275.181 56.467 C 276.882 59.720,277.439 59.677,280.079 56.083 C 280.348 55.717,281.059 54.844,281.659 54.143 C 282.259 53.443,283.125 52.412,283.583 51.851 C 284.817 50.343,284.867 50.333,291.655 50.334 C 300.222 50.336,300.091 50.198,295.645 54.542 C 285.000 64.944,284.167 65.799,284.167 66.333 C 284.167 66.920,284.389 67.424,285.417 69.167 C 285.823 69.854,286.319 70.754,286.520 71.167 C 286.721 71.579,287.125 72.292,287.418 72.750 C 287.897 73.500,288.377 74.316,289.720 76.667 C 289.955 77.079,290.388 77.867,290.681 78.417 C 290.974 78.967,291.390 79.649,291.607 79.932 C 292.352 80.909,291.948 81.893,290.735 82.060 C 289.370 82.247,282.419 82.181,281.515 81.972 C 280.443 81.724,280.240 81.495,279.032 79.167 C 277.079 75.401,275.821 73.357,275.360 73.203 C 275.134 73.128,272.723 75.403,272.114 76.267 C 271.914 76.552,270.780 77.882,269.594 79.223 C 266.815 82.366,267.431 82.170,260.391 82.157 C 253.927 82.145,253.813 82.131,253.613 81.283 L 253.463 80.652 256.515 77.701 C 258.194 76.078,261.070 73.277,262.908 71.477 C 264.746 69.677,266.528 67.965,266.869 67.674 C 268.263 66.478,268.471 65.200,267.490 63.846 C 267.236 63.495,266.863 62.880,266.661 62.479 C 266.460 62.078,266.191 61.632,266.065 61.488 C 265.939 61.344,265.571 60.706,265.247 60.071 C 264.924 59.436,264.500 58.654,264.306 58.333 C 264.113 58.012,263.653 57.225,263.285 56.583 C 262.917 55.942,262.422 55.117,262.185 54.750 C 259.423 50.479,259.564 50.340,266.614 50.385 L 271.479 50.417 271.988 50.905 M353.917 50.663 C 356.945 50.818,358.667 51.066,358.667 51.347 C 358.667 51.431,358.606 51.500,358.532 51.500 C 357.686 51.500,353.293 52.263,352.333 52.577 C 351.646 52.801,350.225 53.144,349.176 53.338 C 348.127 53.533,347.077 53.790,346.843 53.911 C 346.608 54.031,345.817 54.334,345.083 54.583 C 344.350 54.832,343.406 55.253,342.985 55.518 C 342.565 55.783,342.162 56.000,342.091 56.000 C 342.020 56.000,341.614 56.253,341.189 56.562 C 340.764 56.871,340.154 57.256,339.833 57.418 C 338.792 57.945,336.693 59.732,335.332 61.250 C 334.757 61.892,333.715 63.017,333.018 63.751 C 332.321 64.485,330.601 66.435,329.197 68.085 C 327.793 69.734,326.312 71.458,325.906 71.917 C 325.500 72.375,324.856 73.125,324.474 73.583 C 319.160 79.956,316.482 81.578,310.664 81.945 C 305.857 82.249,305.132 81.904,303.478 78.528 C 302.910 77.367,302.278 76.189,302.075 75.912 C 301.872 75.634,301.391 74.761,301.007 73.971 L 300.309 72.535 300.672 71.823 C 300.871 71.432,301.796 70.376,302.726 69.477 C 303.656 68.578,305.373 66.922,306.541 65.796 C 307.709 64.671,310.156 62.288,311.977 60.500 C 313.799 58.712,315.768 56.784,316.353 56.214 C 316.938 55.644,317.492 55.101,317.583 55.008 C 317.791 54.798,320.150 52.539,321.190 51.554 C 321.737 51.036,322.176 50.780,322.690 50.679 C 323.679 50.485,350.172 50.471,353.917 50.663 M235.000 56.216 C 234.588 56.333,233.951 56.632,233.586 56.881 C 233.221 57.130,232.844 57.333,232.748 57.333 C 232.212 57.333,229.724 60.475,229.899 60.931 C 230.210 61.741,230.806 61.832,235.800 61.833 C 241.652 61.833,242.125 61.677,241.968 59.788 C 241.724 56.838,238.543 55.208,235.000 56.216 M96.341 56.908 C 95.566 57.234,94.908 57.500,94.879 57.500 C 94.714 57.500,93.242 58.998,92.765 59.650 C 89.899 63.578,88.959 70.499,90.821 73.977 C 91.083 74.467,92.682 75.457,93.573 75.682 C 97.847 76.758,101.658 73.776,103.603 67.833 C 104.228 65.925,104.210 59.850,103.577 58.884 C 102.007 56.487,99.182 55.716,96.341 56.908 " stroke="none" fill="#cc2b1b" fill-rule="evenodd"></path></g></svg>