<svg xmlns="http://www.w3.org/2000/svg" xmlns:xlink="http://www.w3.org/1999/xlink" width="120" height="72" xmlns:v="https://vecta.io/nano"><defs><path id="A" d="M.127.015H9.82v13.991H.127z"/><path id="B" d="M.127.19H9.82v13.992H.127z"/><path id="C" d="M0 71.985h119.791V.273H0z"/><path id="D" d="M66.825 56.212v.995h-1.549c-.856 0-1.21-.337-1.21-1.133v-2.089h-.786v-.98h.786V51.88h1.241v1.125h1.518v.98h-1.518v1.814c0 .314.108.413.485.413h1.033z"/></defs><g fill="none" fill-rule="evenodd"><g fill="#424143"><path d="M51.702 56.717c-.485-.398-.724-.934-.724-1.607 0-.681.239-1.217.724-1.615s1.141-.597 1.965-.597 1.472.199 1.958.597.732.934.732 1.615c0 .674-.247 1.209-.732 1.607s-1.133.597-1.958.597-1.48-.199-1.965-.597m3.391-1.607c0-.742-.555-1.217-1.426-1.217s-1.426.475-1.426 1.217.555 1.209 1.426 1.209 1.426-.467 1.426-1.209m5.921-2.106h1.233v4.202h-1.202v-.65c-.285.467-.856.758-1.596.758-.64 0-1.109-.161-1.472-.506-.378-.367-.532-.857-.532-1.753v-2.051h1.241v2.083c0 .52.116.827.37 1.003.216.13.401.183.701.183.555 0 .987-.283 1.171-.75a1.44 1.44 0 0 0 .085-.536v-1.983z"/><use xlink:href="#D"/><path d="M70.85 56.717c-.485-.398-.724-.934-.724-1.607 0-.681.239-1.217.724-1.615s1.141-.597 1.965-.597 1.472.199 1.958.597.732.934.732 1.615c0 .674-.247 1.209-.732 1.607s-1.133.597-1.958.597-1.48-.199-1.965-.597m3.391-1.607c0-.742-.555-1.217-1.426-1.217s-1.425.475-1.425 1.217.555 1.209 1.425 1.209 1.426-.467 1.426-1.209m5.17-2.679h-.778c-.316 0-.44.084-.44.305v.268h1.218v.98h-1.218v3.223h-1.24v-3.223h-.694v-.98h.694v-.321c0-.819.532-1.202 1.618-1.202h.84v.949z"/><use xlink:href="#D" x="19.285"/><path d="M87.335 57.207v-5.725h1.241v2.121c.316-.436.901-.704 1.618-.704.616 0 1.102.168 1.472.505.378.36.539.865.539 1.753v2.051h-1.24v-2.081c0-.482-.108-.773-.347-.957-.193-.153-.455-.23-.74-.23-.585 0-1.048.29-1.225.757a1.55 1.55 0 0 0-.077.536v1.975h-1.241zm6.687-.475c-.478-.39-.716-.926-.716-1.615a1.98 1.98 0 0 1 .747-1.6c.501-.414 1.141-.62 1.934-.62.779 0 1.403.184 1.881.551.485.367.724.842.724 1.416 0 .053 0 .099-.008.153l-.015.359h-3.992c.085.59.663.934 1.565.934.648 0 1.286-.207 1.68-.543l.663.742c-.455.498-1.387.804-2.458.804-.855 0-1.518-.191-2.004-.582m.594-2.128h2.667c-.085-.482-.563-.78-1.28-.78-.732 0-1.256.29-1.387.78m7.539 2.604v-5.725h1.241v2.021c.409-.398.994-.605 1.672-.605.717 0 1.295.207 1.749.612s.678.941.678 1.601c0 .65-.224 1.186-.678 1.591s-1.033.613-1.749.613c-.701 0-1.302-.223-1.703-.621v.513h-1.21zm4.076-2.096c0-.728-.562-1.21-1.394-1.21-.863 0-1.441.482-1.441 1.21s.578 1.201 1.441 1.201c.84 0 1.394-.475 1.394-1.201h0zm2.922 1.606c-.485-.398-.724-.934-.724-1.607 0-.681.239-1.217.724-1.615s1.141-.597 1.965-.597 1.472.199 1.958.597.732.934.732 1.615c0 .674-.247 1.209-.732 1.607s-1.133.597-1.958.597-1.479-.199-1.965-.597m3.391-1.607c0-.742-.555-1.217-1.426-1.217s-1.425.475-1.425 1.217.555 1.209 1.425 1.209 1.426-.467 1.426-1.209m7.246 2.097h-1.649l-1.195-1.362-1.202 1.362h-1.541l1.988-2.12-1.95-2.082h1.626l1.149 1.278 1.141-1.278h1.542l-1.927 2.036zM63.832 46.041h-3.313v-9.456c0-1.991-.884-3.063-2.489-3.187-1.001-.077-2.586.157-3.737.413V46.04h-3.314V31.47s4.03-.892 7.67-.889c1.574.002 2.832.557 3.772 1.494s1.412 2.24 1.412 3.912v10.054zm55.887.101a6.88 6.88 0 0 1-1.696.206c-1.867 0-3.101-.413-3.702-1.238-.48-.649-.719-1.878-.719-3.687V26.259h3.27v4.288h2.904V33.2h-2.904v8.017c0 .866.111 1.436.333 1.712.262.353.817.53 1.666.53a6.98 6.98 0 0 0 .847-.059v2.742z"/></g><path d="M17.333 36.171s-3.88 1.49-8.666 1.49S0 36.171 0 36.171s3.88-1.489 8.666-1.489 8.666 1.489 8.666 1.489" fill="#ffcb04"/><g transform="translate(19.497 .258)"><mask id="E" fill="#fff"><use xlink:href="#A"/></mask><path d="M9.82 14.006s-3.438-2.299-6.115-6.163S.127.015.127.015s3.437 2.299 6.115 6.163 3.578 7.829 3.578 7.829" fill="#ffcb04" mask="url(#E)"/></g><path d="M20.539 23.717s-4.144-.458-8.37-2.647-6.934-5.276-6.934-5.276 4.144.458 8.37 2.647 6.934 5.276 6.934 5.276m8.362 19.627c2.46-.023 5.427-1.947 5.427-1.947s-6.879-2.068-6.446-8.196c1.357-10.057 9.555-17.953 19.819-19.224a23.79 23.79 0 0 0-3.332-.222c-12.695.056-22.94 10.123-22.883 22.484s10.395 22.336 23.09 22.281a23.74 23.74 0 0 0 3.119-.225c-9.008-1.118-16.34-7.302-18.97-15.475" fill="#ffcb04"/><g transform="translate(19.497 57.803)"><mask id="F" fill="#fff"><use xlink:href="#B"/></mask><path d="M9.82.19s-3.438 2.3-6.115 6.164S.127 14.182.127 14.182s3.437-2.3 6.115-6.163S9.82.19 9.82.19" fill="#ffcb04" mask="url(#F)"/></g><path d="M20.539 48.541s-4.144.458-8.37 2.647-6.934 5.276-6.934 5.276 4.144-.458 8.37-2.646 6.934-5.276 6.934-5.276" fill="#ffcb04"/><mask id="G" fill="#fff"><use xlink:href="#C"/></mask><path mask="url(#G)" d="M44.322 46.025h3.379V26.243h-3.379zm33.874-13.022c0-2.398-1.182-3.597-3.542-3.597h-4.166v7.136h4.104c1.131 0 2.015-.309 2.65-.929s.954-1.489.954-2.61m3.414 0c0 2.025-.632 3.652-1.891 4.881s-2.974 1.842-5.135 1.842h-4.096v6.251h-3.379V26.192h7.233c2.342 0 4.139.605 5.391 1.814s1.877 2.875 1.877 4.997m12.219 5.198c0-1.49-.349-2.67-1.044-3.542s-1.621-1.309-2.773-1.309-2.074.442-2.771 1.323-1.043 2.057-1.043 3.528c0 1.489.348 2.669 1.043 3.542s1.622 1.309 2.771 1.309 2.075-.436 2.773-1.309 1.044-2.053 1.044-3.542m3.421-.015c0 2.379-.671 4.296-2.014 5.75s-3.083 2.182-5.224 2.182-3.881-.727-5.223-2.182-2.014-3.371-2.014-5.75.67-4.29 2.014-5.735 3.085-2.167 5.223-2.167c2.161 0 3.907.723 5.24 2.167s1.998 3.358 1.998 5.735m14.392 2.742c0 1.495-.585 2.723-1.757 3.686s-2.715 1.444-4.631 1.444c-2.989 0-5.3-.884-6.936-2.654l2.513-2.093c1.252 1.22 2.716 1.828 4.391 1.828.93 0 1.667-.182 2.212-.545s.817-.82.817-1.371c0-.629-.314-1.062-.939-1.297-.364-.137-1.332-.324-2.907-.561-1.898-.274-3.25-.688-4.059-1.238-.948-.668-1.421-1.671-1.421-3.007 0-1.357.574-2.492 1.725-3.407s2.685-1.371 4.604-1.371c2.32 0 4.299.758 5.935 2.271l-1.969 2.064c-1.191-1.041-2.544-1.563-4.058-1.563-1.938 0-2.906.542-2.906 1.622 0 .628.443 1.061 1.333 1.298l3.725.618c2.886.531 4.33 1.956 4.33 4.276" fill="#424143"/></g></svg>