<?xml version="1.0" encoding="UTF-8" standalone="no"?>
<svg xmlns="http://www.w3.org/2000/svg" viewBox="0 0 80 80" width="80" height="80" preserveAspectRatio="xMidYMid meet" style="width: 80px; height: 80px; transform: translate3d(0px, 0px, 0px);"><defs><clipPath id="__lottie_element_3"><rect width="80" height="80" x="0" y="0"></rect></clipPath><linearGradient id="__lottie_element_19" spreadMethod="pad" gradientUnits="userSpaceOnUse" x1="-14.75" y1="0" x2="14" y2="0.25"><stop offset="0%" stop-color="rgb(252,196,9)"></stop><stop offset="50%" stop-color="rgb(249,182,19)"></stop><stop offset="100%" stop-color="rgb(246,167,29)"></stop></linearGradient><linearGradient id="__lottie_element_23" spreadMethod="pad" gradientUnits="userSpaceOnUse" x1="-5.25" y1="-0.5" x2="10.75" y2="-0.75"><stop offset="0%" stop-color="rgb(252,196,9)"></stop><stop offset="50%" stop-color="rgb(249,182,19)"></stop><stop offset="100%" stop-color="rgb(246,167,29)"></stop></linearGradient><linearGradient id="__lottie_element_27" spreadMethod="pad" gradientUnits="userSpaceOnUse" x1="-16.75" y1="0.25" x2="12.25" y2="0.5"><stop offset="0%" stop-color="rgb(252,196,9)"></stop><stop offset="50%" stop-color="rgb(249,182,19)"></stop><stop offset="100%" stop-color="rgb(246,167,29)"></stop></linearGradient><linearGradient id="__lottie_element_31" spreadMethod="pad" gradientUnits="userSpaceOnUse" x1="-16.25" y1="0.25" x2="19" y2="1"><stop offset="0%" stop-color="rgb(252,196,9)"></stop><stop offset="50%" stop-color="rgb(249,182,19)"></stop><stop offset="100%" stop-color="rgb(246,167,29)"></stop></linearGradient></defs><g clip-path="url(#__lottie_element_3)"><g transform="matrix(1,0,0,1,0,0)" opacity="1" style="display: block;"><rect width="80" height="80" fill="#fdca05"></rect></g><g transform="matrix(1,0,0,1,-60,-60)" opacity="1" style="display: block;"></g><g transform="matrix(1,0,0,1,-60,-60)" opacity="1" style="display: block;"><g opacity="1" transform="matrix(1,0,0,1,121.18000030517578,95.42900085449219)"><path fill="rgb(255,255,255)" fill-opacity="1" d=" M15.23799991607666,0.0010000000474974513 C15.23799991607666,8.586999893188477 8.416000366210938,15.54800033569336 0,15.54800033569336 C-8.414999961853027,15.54800033569336 -15.23799991607666,8.586999893188477 -15.23799991607666,0.0010000000474974513 C-15.23799991607666,-8.586000442504883 -8.414999961853027,-15.54800033569336 0,-15.54800033569336 C8.416000366210938,-15.54800033569336 15.23799991607666,-8.586000442504883 15.23799991607666,0.0010000000474974513z"></path></g></g><g transform="matrix(1,0,0,1,-60,-60)" opacity="1" style="display: block;"><g opacity="1" transform="matrix(1,0,0,1,79.2750015258789,95.42900085449219)"><path fill="rgb(255,255,255)" fill-opacity="1" d=" M15.23799991607666,0.0010000000474974513 C15.23799991607666,8.586999893188477 8.416000366210938,15.54800033569336 0,15.54800033569336 C-8.416000366210938,15.54800033569336 -15.23799991607666,8.586999893188477 -15.23799991607666,0.0010000000474974513 C-15.23799991607666,-8.586000442504883 -8.416000366210938,-15.54800033569336 0,-15.54800033569336 C8.416000366210938,-15.54800033569336 15.23799991607666,-8.586000442504883 15.23799991607666,0.0010000000474974513z"></path></g></g><g transform="matrix(1,0,0,1,-60,-60)" opacity="1" style="display: block;"><g opacity="1" transform="matrix(1, 0, 0, 1, 70.00786056401009, 95.87606962615313)" class="originAnimLeftEye" data-svg-origin="-5.714000225067139 -5.830999851226807"><path fill="rgb(65,64,66)" fill-opacity="1" d=" M5.714000225067139,0 C5.714000225067139,3.2200000286102295 3.1549999713897705,5.830999851226807 0,5.830999851226807 C-3.1559998989105225,5.830999851226807 -5.714000225067139,3.2200000286102295 -5.714000225067139,0 C-5.714000225067139,-3.2200000286102295 -3.1559998989105225,-5.830999851226807 0,-5.830999851226807 C3.1549999713897705,-5.830999851226807 5.714000225067139,-3.2200000286102295 5.714000225067139,0z"></path></g></g><g transform="matrix(1,0,0,1,-60,-60)" opacity="1" style="display: block;"><g opacity="1" transform="matrix(1, 0, 0, 1, 112.00665683916365, 95.84609072717736)" data-svg-origin="-5.715000152587891 -5.830999851226807"><path fill="rgb(65,64,66)" fill-opacity="1" d=" M5.715000152587891,0 C5.715000152587891,3.2200000286102295 3.1549999713897705,5.830999851226807 -0.0010000000474974513,5.830999851226807 C-3.1570000648498535,5.830999851226807 -5.715000152587891,3.2200000286102295 -5.715000152587891,0 C-5.715000152587891,-3.2200000286102295 -3.1570000648498535,-5.830999851226807 -0.0010000000474974513,-5.830999851226807 C3.1549999713897705,-5.830999851226807 5.715000152587891,-3.2200000286102295 5.715000152587891,0z"></path></g></g><g transform="matrix(1,0,0,1,-60,-76.43440246582031)" opacity="1" style="display: block;"><g opacity="1" transform="matrix(1,0,0,1,79.23799896240234,88)"><path fill="url(#__lottie_element_31)" fill-opacity="1" d=" M-16,8.161999702453613 C-16,8.161999702453613 16,8.161999702453613 16,8.161999702453613 C16,-0.8529999852180481 8.836999893188477,-8.161999702453613 0.0010000000474974513,-8.161999702453613 C-8.836000442504883,-8.161999702453613 -16,-0.8529999852180481 -16,8.161999702453613z"></path></g></g><g transform="matrix(1,0,0,1,-60,-42.59886169433594)" opacity="1" style="display: block;"><g opacity="1" transform="matrix(1,0,0,1,79.23799896240234,104)"><path fill="url(#__lottie_element_27)" fill-opacity="1" d=" M-16.66200065612793,-8.5 C-16.66200065612793,0.8889999985694885 -9.20199966430664,8.5 0.0010000000474974513,8.5 C9.20199966430664,8.5 16.66200065612793,0.8889999985694885 16.66200065612793,-8.5 C16.66200065612793,-8.5 -16.66200065612793,-8.5 -16.66200065612793,-8.5z M-16.66200065612793,8.5 C-16.66200065612793,8.5 16.66200065612793,8.5 16.66200065612793,8.5 C16.66200065612793,8.5 16.66200065612793,-8.5 16.66200065612793,-8.5 C16.66200065612793,-8.5 -16.66200065612793,-8.5 -16.66200065612793,-8.5 C-16.66200065612793,-8.5 -16.66200065612793,8.5 -16.66200065612793,8.5z"></path></g></g><g transform="matrix(1,0,0,1,-60,-76.43440246582031)" opacity="1" style="display: block;"><g opacity="1" transform="matrix(1,0,0,1,121,87.83799743652344)"><path fill="url(#__lottie_element_23)" fill-opacity="1" d=" M-16,8.161999702453613 C-16,8.161999702453613 16,8.161999702453613 16,8.161999702453613 C16,-0.8529999852180481 8.836999893188477,-8.163000106811523 0,-8.163000106811523 C-8.836000442504883,-8.163000106811523 -16,-0.8529999852180481 -16,8.161999702453613z"></path></g></g><g transform="matrix(1,0,0,1,-60,-42.59886169433594)" opacity="1" style="display: block;"><g opacity="1" transform="matrix(1,0,0,1,121.66300201416016,104.5)"><path fill="url(#__lottie_element_19)" fill-opacity="1" d=" M-16.663000106811523,-8.5 C-16.663000106811523,0.8880000114440918 -9.20199966430664,8.5 0,8.5 C9.20199966430664,8.5 16.663000106811523,0.8880000114440918 16.663000106811523,-8.5 C16.663000106811523,-8.5 -16.663000106811523,-8.5 -16.663000106811523,-8.5z M-16.663000106811523,8.5 C-16.663000106811523,8.5 16.663000106811523,8.5 16.663000106811523,8.5 C16.663000106811523,8.5 16.663000106811523,-8.5 16.663000106811523,-8.5 C16.663000106811523,-8.5 -16.663000106811523,-8.5 -16.663000106811523,-8.5 C-16.663000106811523,-8.5 -16.663000106811523,8.5 -16.663000106811523,8.5z"></path></g></g><g transform="matrix(1,0,0,1,-60,-60)" opacity="1" style="display: block;"><g opacity="1" transform="matrix(1,0,0,1,100,101.0009994506836)"><path fill="rgb(252,201,5)" fill-opacity="1" d=" M-40,40 C-40,40 40,40 40,40 C40,40 40,-40 40,-40 C40,-40 -40,-40 -40,-40 C-40,-40 -40,40 -40,40z M-20.729999542236328,9.979999542236328 C-29.139999389648438,9.979999542236328 -35.959999084472656,3.0190000534057617 -35.959999084472656,-5.570000171661377 C-35.959999084472656,-14.16100025177002 -29.139999389648438,-21.121000289916992 -20.729999542236328,-21.121000289916992 C-12.3100004196167,-21.121000289916992 -5.489999771118164,-14.16100025177002 -5.489999771118164,-5.570000171661377 C-5.489999771118164,3.0190000534057617 -12.3100004196167,9.979999542236328 -20.729999542236328,9.979999542236328z M21.18000030517578,9.979999542236328 C12.760000228881836,9.979999542236328 5.940999984741211,3.0190000534057617 5.940999984741211,-5.570000171661377 C5.940999984741211,-14.16100025177002 12.760000228881836,-21.121000289916992 21.18000030517578,-21.121000289916992 C29.600000381469727,-21.121000289916992 36.41999816894531,-14.16100025177002 36.41999816894531,-5.570000171661377 C36.41999816894531,3.0190000534057617 29.600000381469727,9.979999542236328 21.18000030517578,9.979999542236328z"></path></g></g><g transform="matrix(1,0,0,0.8952300548553467,-10,0.3259696960449219)" opacity="1" style="display: none;"><g opacity="1" transform="matrix(1,0,0,1,50.58399963378906,68.26000213623047)"><path fill="rgb(65,64,66)" fill-opacity="1" d=" M-4.0920000076293945,3.2170000076293945 C-3.180000066757202,1.8389999866485596 -1.6890000104904175,0.9380000233650208 0.0010000000474974513,0.9380000233650208 C1.690000057220459,0.9380000233650208 3.180999994277954,1.8389999866485596 4.093999862670898,3.2170000076293945 C6.589000225067139,1.9709999561309814 8.467000007629395,-0.3790000081062317 9.130999565124512,-3.2170000076293945 C9.130999565124512,-3.2170000076293945 -9.130999565124512,-3.2170000076293945 -9.130999565124512,-3.2170000076293945 C-8.467000007629395,-0.3790000081062317 -6.5879998207092285,1.9709999561309814 -4.0920000076293945,3.2170000076293945z"></path></g><g opacity="1" transform="matrix(1,0,0,1,50.58399963378906,70.81900024414062)"><path fill="rgb(253,253,253)" fill-opacity="1" d=" M0,-1.621999979019165 C-1.6890000104904175,-1.621999979019165 -3.180999994277954,-0.7200000286102295 -4.0929999351501465,0.6579999923706055 C-2.8550000190734863,1.2760000228881836 -1.4670000076293945,1.621999979019165 0,1.621999979019165 C1.4670000076293945,1.621999979019165 2.8559999465942383,1.2760000228881836 4.0929999351501465,0.6579999923706055 C3.180999994277954,-0.7200000286102295 1.6890000104904175,-1.621999979019165 0,-1.621999979019165z"></path></g><g opacity="1" transform="matrix(1,0,0,1,50.58399963378906,63.904998779296875)"><path fill="rgb(253,253,253)" fill-opacity="1" d=" M-9.394000053405762,-1.1369999647140503 C-9.394000053405762,-0.3529999852180481 -9.302000045776367,0.40799999237060547 -9.130999565124512,1.1369999647140503 C-9.130999565124512,1.1369999647140503 9.130000114440918,1.1369999647140503 9.130000114440918,1.1369999647140503 C9.300999641418457,0.40799999237060547 9.394000053405762,-0.3529999852180481 9.394000053405762,-1.1369999647140503 C9.394000053405762,-1.1369999647140503 -9.394000053405762,-1.1369999647140503 -9.394000053405762,-1.1369999647140503z"></path></g></g><g style="display: block;" transform="matrix(1,0,0,0.8952300548553467,-10,0.3259696960449219)" opacity="1"><g opacity="1" transform="matrix(1,0,0,1,50.58399963378906,68.26000213623047)"><path fill="rgb(65,64,66)" fill-opacity="1" d=" M-4.0920000076293945,3.2170000076293945 C-3.180000066757202,1.8389999866485596 -1.6890000104904175,0.9380000233650208 0.0010000000474974513,0.9380000233650208 C1.690000057220459,0.9380000233650208 3.180999994277954,1.8389999866485596 4.093999862670898,3.2170000076293945 C6.589000225067139,1.9709999561309814 8.467000007629395,-0.3790000081062317 9.130999565124512,-3.2170000076293945 C9.130999565124512,-3.2170000076293945 -9.130999565124512,-3.2170000076293945 -9.130999565124512,-3.2170000076293945 C-8.467000007629395,-0.3790000081062317 -6.5879998207092285,1.9709999561309814 -4.0920000076293945,3.2170000076293945z"></path></g><g opacity="1" transform="matrix(1,0,0,1,50.58399963378906,70.81900024414062)"><path fill="rgb(253,253,253)" fill-opacity="1" d=" M0,-1.621999979019165 C-1.6890000104904175,-1.621999979019165 -3.180999994277954,-0.7200000286102295 -4.0929999351501465,0.6579999923706055 C-2.8550000190734863,1.2760000228881836 -1.4670000076293945,1.621999979019165 0,1.621999979019165 C1.4670000076293945,1.621999979019165 2.8559999465942383,1.2760000228881836 4.0929999351501465,0.6579999923706055 C3.180999994277954,-0.7200000286102295 1.6890000104904175,-1.621999979019165 0,-1.621999979019165z"></path></g><g opacity="1" transform="matrix(1,0,0,1,50.58399963378906,63.904998779296875)"><path fill="rgb(253,253,253)" fill-opacity="1" d=" M-9.394000053405762,-1.1369999647140503 C-9.394000053405762,-0.3529999852180481 -9.302000045776367,0.40799999237060547 -9.130999565124512,1.1369999647140503 C-9.130999565124512,1.1369999647140503 9.130000114440918,1.1369999647140503 9.130000114440918,1.1369999647140503 C9.300999641418457,0.40799999237060547 9.394000053405762,-0.3529999852180481 9.394000053405762,-1.1369999647140503 C9.394000053405762,-1.1369999647140503 -9.394000053405762,-1.1369999647140503 -9.394000053405762,-1.1369999647140503z"></path></g></g><g style="display: none;"><g><path stroke-linecap="butt" stroke-linejoin="miter" fill-opacity="0" stroke-miterlimit="4"></path></g></g></g></svg>
