<?xml version="1.0" encoding="UTF-8" standalone="no"?>
<!-- Generator: Adobe Illustrator 19.0.0, SVG Export Plug-In . SVG Version: 6.00 Build 0)  -->

<svg
   xmlns:dc="http://purl.org/dc/elements/1.1/"
   xmlns:cc="http://creativecommons.org/ns#"
   xmlns:rdf="http://www.w3.org/1999/02/22-rdf-syntax-ns#"
   xmlns:svg="http://www.w3.org/2000/svg"
   xmlns="http://www.w3.org/2000/svg"
   xmlns:sodipodi="http://sodipodi.sourceforge.net/DTD/sodipodi-0.dtd"
   xmlns:inkscape="http://www.inkscape.org/namespaces/inkscape"
   version="1.1"
   id="layer"
   x="0px"
   y="0px"
   viewBox="-153 -46 599.90002 202.34142"
   xml:space="preserve"
   sodipodi:docname="przelewy24-vector-logo.svg"
   width="599.90002"
   height="202.34142"
   inkscape:version="0.92.3 (2405546, 2018-03-11)"><metadata
   id="metadata4843"><rdf:RDF><cc:Work
       rdf:about=""><dc:format>image/svg+xml</dc:format><dc:type
         rdf:resource="http://purl.org/dc/dcmitype/StillImage" /><dc:title></dc:title></cc:Work></rdf:RDF></metadata><defs
   id="defs4841" /><sodipodi:namedview
   pagecolor="#ffffff"
   bordercolor="#666666"
   borderopacity="1"
   objecttolerance="10"
   gridtolerance="10"
   guidetolerance="10"
   inkscape:pageopacity="0"
   inkscape:pageshadow="2"
   inkscape:window-width="1920"
   inkscape:window-height="1017"
   id="namedview4839"
   showgrid="false"
   fit-margin-top="0"
   fit-margin-left="0"
   fit-margin-right="0"
   fit-margin-bottom="0"
   inkscape:zoom="1.3266871"
   inkscape:cx="304.9"
   inkscape:cy="97.30455"
   inkscape:window-x="-8"
   inkscape:window-y="-8"
   inkscape:window-maximized="1"
   inkscape:current-layer="layer" />
<style
   type="text/css"
   id="style4796">
	.st0{fill:#D13239;}
	.st1{fill:#B3B2B1;}
</style>
<g
   id="g4836"
   transform="translate(-21.1,-220.96313)">
	<polygon
   class="st0"
   points="41.5,302.8 0,342.3 34.8,342.3 32.8,354.4 -18.4,354.4 -16.3,341.9 23.4,303.8 -8.3,303.8 -6.3,291.6 43.3,291.5 "
   id="polygon4798"
   style="fill:#d13239" />
	<path
   class="st0"
   d="m -60.4,272.3 c -1.1,-1.1 -2.6,-2 -4.3,-2.7 -1.8,-0.7 -3.8,-1.2 -5.8,-1.6 -2.5,-0.4 -4.9,-0.6 -6.6,-0.7 -1.6,-0.1 -2.6,-0.1 -2.6,-0.1 h -21.7 -16.1 l -14.4,87.2 h 13.5 l 5.3,-32.3 26.2,0.1 c 0,0 10.2,0.4 17.4,-3.4 7.2,-3.8 9.2,-12.5 9.2,-12.5 0,0 0.8,-3.2 1.5,-7.2 0.7,-4.3 1.5,-9.5 1.8,-12.3 0.2,-1.2 0.3,-2 0.3,-2 0,0 0.2,-0.9 0.2,-2.3 0,-1.9 -0.3,-4.8 -1.8,-7.6 -0.7,-0.9 -1.3,-1.8 -2.1,-2.6 z m -10.4,15.4 c 0,0.2 -1.2,7.2 -2.8,15.5 -0.6,3.2 -3,4.9 -5.8,5.5 -4.6,1 -9.6,0.8 -9.6,0.8 l -21.9,-0.1 4.8,-29 19.8,0.1 c 0,0 1.3,0 3.2,0 2.1,0 4.9,0.1 7.3,0.4 2,0.3 3.6,0.7 4.1,1.3 0.7,0.8 0.9,1.9 1,2.9 0.1,1.3 -0.1,2.5 -0.1,2.6 z"
   id="path4800"
   inkscape:connector-curvature="0"
   style="fill:#d13239" />
	<polygon
   class="st0"
   points="108.9,354.4 95.9,354.4 110.4,267.2 123.4,267.2 "
   id="polygon4802"
   style="fill:#d13239" />
	<polygon
   class="st0"
   points="196.6,335.8 215.7,291.5 231.1,291.5 235.6,336 254.7,291.5 267.7,291.5 240.2,354.4 224.9,354.4 220.5,310.4 201.1,354.4 186.1,354.4 179.7,291.6 192.2,291.5 "
   id="polygon4804"
   style="fill:#d13239" />
	<g
   id="g4810">
		<path
   class="st0"
   d="m 86.5,292.1 c -3.6,-1.2 -9.9,-1.4 -15.3,-1.4 -5.2,0.1 -7.5,0.3 -9.5,0.7 0,0 -9.2,1.3 -14.4,7.8 -5.2,6.5 -6.8,20.6 -6.8,20.6 0,0 -3.1,15.6 -2.2,20.8 0.9,5.2 2.5,10 8.4,12.3 5.9,2.3 10.9,2.2 10.9,2.2 0,0 10.5,0.8 18.4,-1 7.9,-1.8 12.1,-7.4 12.1,-7.4 0,0 1.9,-2.4 3.2,-5.3 1.3,-2.9 1.7,-4.8 1.8,-5.1 l 0.8,-3.4 H 80.4 c 0,0 -0.7,8.9 -8,9.7 -7.3,0.8 -11.1,0.5 -12.6,0.4 -1.4,-0.1 -9.2,0.3 -8.6,-6.2 0,-0.1 0,-0.2 0,-0.4 0.3,-7.4 1.2,-9.3 1.2,-9.3 l 42.3,-0.1 1.8,-10.5 c 2.3,-11.9 0.8,-20.9 -10,-24.4 z M 83.6,315 h -29 l 1.1,-4.6 c 0,0 1,-3.6 3,-5.1 2,-1.5 4.6,-1.8 7,-2 2.4,-0.2 8.8,-0.7 14.1,0.4 1.7,0.3 3.4,1.3 3.8,2.8 1.1,3.3 0,8.5 0,8.5 z"
   id="path4806"
   inkscape:connector-curvature="0"
   style="fill:#d13239" />
		<path
   class="st0"
   d="m 51.5,336.5 c 0,0.1 0,0.2 0,0.3 -0.1,0.5 0,-0.3 0,-0.3 z"
   id="path4808"
   inkscape:connector-curvature="0"
   style="fill:#d13239" />
	</g>
	<g
   id="g4816">
		<path
   class="st0"
   d="m 131.2,336.6 c 0,0.1 0,0.2 0,0.3 0,0.4 0,-0.4 0,-0.3 z"
   id="path4812"
   inkscape:connector-curvature="0"
   style="fill:#d13239" />
		<path
   class="st0"
   d="m 166.2,292.1 c -3.6,-1.2 -9.9,-1.4 -15.3,-1.4 -5.2,0.1 -7.5,0.3 -9.5,0.7 0,0 -9.2,1.3 -14.4,7.8 -5.2,6.5 -6.8,20.6 -6.8,20.6 0,0 -3.1,15.6 -2.2,20.8 0.9,5.2 2.5,10 8.4,12.3 5.9,2.3 10.9,2.2 10.9,2.2 0,0 10.5,0.8 18.4,-1 7.9,-1.9 12.1,-7.4 12.1,-7.4 0,0 1.9,-2.4 3.2,-5.3 1.3,-2.9 1.7,-4.8 1.8,-5.1 l 0.8,-3.4 h -13.5 c 0,0 -0.7,8.9 -8,9.7 -7.3,0.8 -11.1,0.5 -12.6,0.5 -1.4,-0.1 -9.2,0.3 -8.6,-6.2 0,-0.1 0,-0.2 0,-0.4 0.3,-7.4 1.2,-9.3 1.2,-9.3 l 42.3,-0.1 1.8,-10.5 c 2.3,-11.9 0.9,-21 -10,-24.5 z m -2.9,22.9 h -29 l 1.1,-4.6 c 0,0 1,-3.6 3,-5.1 2,-1.5 4.6,-1.8 7,-2 2.4,-0.2 8.8,-0.7 14.1,0.4 1.7,0.3 3.4,1.3 3.8,2.8 1.1,3.3 0,8.5 0,8.5 z"
   id="path4814"
   inkscape:connector-curvature="0"
   style="fill:#d13239" />
	</g>
	<path
   class="st0"
   d="m 282.6,291.6 8.3,46 23.5,-46 13.2,0.1 -33.9,65.7 c 0,0 -6.1,11.9 -9.9,14.9 -3.8,3 -6.1,4.4 -9.2,4.7 -3.1,0.3 -4.4,0.5 -7.3,0 l -3.2,-0.6 2,-11.7 c 0,0 5.3,1 8.4,-0.3 3.1,-1.2 5.6,-6.6 5.6,-6.6 l 1.6,-2.7 -12.3,-63.7 z"
   id="path4818"
   inkscape:connector-curvature="0"
   style="fill:#d13239" />
	<path
   class="st1"
   d="m 332.5,297.8 h 13.6 l 0.8,-5.3 c 0,0 1.5,-9.6 4.7,-11.4 1,-0.6 2.7,-1.1 4.7,-1.5 3.6,-0.6 8.1,-0.7 11.8,-0.6 5.7,0.2 7.8,0.3 13.6,0.9 5.8,0.7 4.3,6.2 4.3,6.2 l -1.1,8.3 c 0,0 -0.5,3.7 -1.8,6 -1.2,2.1 -4.4,3.5 -6.3,4.1 -4.5,1.5 -19.9,5.4 -19.9,5.4 l -12.1,3.5 c 0,0 -7.4,2.2 -11.6,6.7 -4.2,4.6 -5.8,9.8 -6.4,12.6 -0.6,2.7 -3.8,21.6 -3.8,21.6 h 65.3 l 2.2,-13 -51.6,0.1 0.9,-5.3 c 0,0 0.6,-5.5 2.8,-7.3 0.7,-0.6 1,-1.3 5.2,-2.8 2.5,-0.9 10.9,-3.1 10.9,-3.1 l 19.5,-5.3 c 0,0 10.6,-2.7 14.8,-8.6 4.2,-5.8 5.8,-16.9 5.8,-16.9 0,0 1.1,-10.8 0.3,-14.2 -0.9,-3.4 -4.1,-7.4 -7.9,-9.2 -3.9,-1.7 -7.9,-2.8 -19.7,-2.6 -11.7,0.2 -17.6,0.7 -23.5,2.9 -6,2.2 -9.4,6.2 -11.6,11.8 -2.5,5.5 -3.9,17 -3.9,17 z"
   id="path4820"
   inkscape:connector-curvature="0"
   style="fill:#b3b2b1" />
	<path
   class="st1"
   d="m 455.4,322.1 9.2,-54.8 h -16.2 l -50.5,54.2 -2.3,13.7 h 44.1 l -3.2,19.3 h 13.6 l 3.2,-19.3 h 12.5 l 2.2,-13.1 z m -13.4,0 h -28.5 l 34.7,-37 z"
   id="path4822"
   inkscape:connector-curvature="0"
   style="fill:#b3b2b1" />
	<path
   class="st1"
   d="M -31.8,274.4 H 9.8 c 0,0 9.3,-7.5 15.9,-12.4 6.6,-4.8 18.7,-12.5 18.7,-12.5 l -23.5,-11 c 0,0 -19.9,12.3 -28.3,18.1 -8.2,5.4 -24.4,17.8 -24.4,17.8 z"
   id="path4824"
   inkscape:connector-curvature="0"
   style="fill:#b3b2b1" />
	<path
   class="st1"
   d="m 57.5,241.8 -19.3,-13 c 0,0 17.4,-9.9 40.7,-19.2 23.2,-9.2 35.6,-13.1 35.6,-13.1 l 3.9,18.4 c 0,0 -22.3,7.5 -35.1,13.5 -13.2,5.7 -25.8,13.4 -25.8,13.4 z"
   id="path4826"
   inkscape:connector-curvature="0"
   style="fill:#b3b2b1" />
	<path
   class="st1"
   d="m 132.7,210.9 -3.4,-18.8 c 0,0 23.8,-6.3 45.6,-10.4 21.8,-4.1 50.7,-6 50.7,-6 l -9.6,29.1 c 0,0 -25.4,-3.5 -49.3,-0.2 -18.5,2.2 -34,6.3 -34,6.3 z"
   id="path4828"
   inkscape:connector-curvature="0"
   style="fill:#b3b2b1" />
	<path
   class="st1"
   d="M 231.2,207.3 247.3,175 c 0,0 35.2,-0.7 65.6,4 30.4,4.7 58.2,11.9 57.6,12.2 l -77.1,40.3 c 0,0 -18,-11.4 -40.4,-18.4 -12.6,-3.7 -21.8,-5.8 -21.8,-5.8 z"
   id="path4830"
   inkscape:connector-curvature="0"
   style="fill:#b3b2b1" />
	<path
   class="st1"
   d="m 307.3,240.3 16.9,12.9 h 139.2 c 0,0 -0.3,-4.5 -4,-10.9 -2.3,-4 -6.5,-8.2 -10.9,-12.6 -1.6,-1.6 -8,-6.6 -12.8,-9.7 -12.3,-8 -19.2,-11.1 -31.9,-16.8 z"
   id="path4832"
   inkscape:connector-curvature="0"
   style="fill:#b3b2b1" />
	<path
   class="st0"
   d="m -22.8,291.5 c -5.2,0 -10.2,2.1 -14.4,4.4 l 0.7,-4.4 h -13.8 l -11.1,62.6 h 13.9 l 6.1,-34.7 c 1.3,-7 6.5,-15.7 16.8,-15.7 h 7.2 l 2.2,-12.2 z"
   id="path4834"
   inkscape:connector-curvature="0"
   style="fill:#d13239" />
</g>
</svg>